<?xml version="1.0" encoding="UTF-8"?>
<!DOCTYPE svg PUBLIC "-//W3C//DTD SVG 1.1//EN" "http://www.w3.org/Graphics/SVG/1.1/DTD/svg11.dtd">

<svg xmlns="http://www.w3.org/2000/svg" xmlns:xlink="http://www.w3.org/1999/xlink" viewBox="0 0 1 1"
    preserveAspectRatio="xMinYMin meet">
    <path stroke-opacity="0" d="M 8.0e-2,0.0 L 0.120000005,0.0 L 0.0,0.120000005 L 0.0,8.0e-2 Z"
        style="stroke: silver; fill: silver;" />
    <path stroke-opacity="0" d="M 8.0e-2,0.0 L 0.120000005,0.0 L 0.0,0.120000005 L 0.0,8.0e-2 Z"
        transform="rotate(90.0,0.5,0.5)" style="stroke: silver; fill: silver;" />
    <path stroke-opacity="0" d="M 8.0e-2,0.0 L 0.120000005,0.0 L 0.0,0.120000005 L 0.0,8.0e-2 Z"
        transform="rotate(180.0,0.5,0.5)" style="stroke: silver; fill: silver;" />
    <path stroke-opacity="0" d="M 8.0e-2,0.0 L 0.120000005,0.0 L 0.0,0.120000005 L 0.0,8.0e-2 Z"
        transform="rotate(270.0,0.5,0.5)" style="stroke: silver; fill: silver;" />
    <path fill-opacity="0" stroke-width="3.0e-2" d="M 0.0,0.38 A 0.12,0.12 0.0 1,1 0.0,0.62 "
        style="stroke: silver; fill: silver;" />
    <path fill-opacity="0" stroke-width="3.0e-2" d="M 0.0,0.38 A 0.12,0.12 0.0 1,1 0.0,0.62 "
        transform="rotate(180.0,0.5,0.5)" style="stroke: silver; fill: silver;" />
    <path stroke-opacity="0"
        d="M 0.36,0.0 L 0.43,0.12124355 L 0.57,0.12124355 L 0.64,0.0 L 0.6,0.0 L 0.55,8.660253e-2 L 0.45,8.660253e-2 L 0.4,0.0 Z"
        style="stroke: silver; fill: silver;" />
    <path stroke-opacity="0"
        d="M 0.36,0.0 L 0.43,0.12124355 L 0.57,0.12124355 L 0.64,0.0 L 0.6,0.0 L 0.55,8.660253e-2 L 0.45,8.660253e-2 L 0.4,0.0 Z"
        transform="rotate(180.0,0.5,0.5)" style="stroke: silver; fill: silver;" />
    <path stroke-opacity="0"
        d="M 0.41771007,0.61326236 L 0.58228993,0.61326236 L 0.5587785,0.5809017 L 0.44122148,0.5809017 Z"
        transform="rotate(180.0,0.5,0.5)" style="stroke: silver; fill: silver;" />
    <path stroke-opacity="0"
        d="M 0.41771007,0.61326236 L 0.58228993,0.61326236 L 0.5587785,0.5809017 L 0.44122148,0.5809017 Z"
        transform="rotate(252.0,0.5,0.5)" style="stroke: silver; fill: silver;" />
    <path stroke-opacity="0"
        d="M 0.41771007,0.61326236 L 0.58228993,0.61326236 L 0.5587785,0.5809017 L 0.44122148,0.5809017 Z"
        transform="rotate(324.0,0.5,0.5)" style="stroke: silver; fill: silver;" />
    <path stroke-opacity="0"
        d="M 0.41771007,0.61326236 L 0.58228993,0.61326236 L 0.5587785,0.5809017 L 0.44122148,0.5809017 Z"
        transform="rotate(396.0,0.5,0.5)" style="stroke: silver; fill: silver;" />
    <path stroke-opacity="0"
        d="M 0.41771007,0.61326236 L 0.58228993,0.61326236 L 0.5587785,0.5809017 L 0.44122148,0.5809017 Z"
        transform="rotate(468.0,0.5,0.5)" style="stroke: silver; fill: silver;" />
</svg>