<?xml version="1.0" encoding="UTF-8"?>
<!DOCTYPE svg PUBLIC "-//W3C//DTD SVG 1.1//EN"
    "http://www.w3.org/Graphics/SVG/1.1/DTD/svg11.dtd">
<svg xmlns="http://www.w3.org/2000/svg" xmlns:xlink="http://www.w3.org/1999/xlink" viewBox="0 0 1 1.7320508075688772" preserveAspectRatio="xMinYMin meet" fill="black"><path stroke-width="0" fill="rgb(235,235,235)" d="M 0.5,0.0 A 0.28867513459481287,0.28867513459481287 0.0 0,1 0.75,0.4330127018922193 A 0.28867513459481287,0.28867513459481287 0.0 0,0 1.0,0.8660254037844386 A 0.28867513459481287,0.28867513459481287 0.0 0,1 0.5,0.8660254037844386 A 0.28867513459481287,0.28867513459481287 0.0 0,0 0.0,0.8660254037844386 A 0.28867513459481287,0.28867513459481287 0.0 0,1 0.25,0.4330127018922193 A 0.28867513459481287,0.28867513459481287 0.0 0,0 0.5,0.0 " /><path stroke-width="0" fill="rgb(235,235,235)" d="M 0.5,0.0 A 0.28867513459481287,0.28867513459481287 0.0 0,1 0.75,0.4330127018922193 A 0.28867513459481287,0.28867513459481287 0.0 0,0 1.0,0.8660254037844386 A 0.28867513459481287,0.28867513459481287 0.0 0,1 0.5,0.8660254037844386 A 0.28867513459481287,0.28867513459481287 0.0 0,0 0.0,0.8660254037844386 A 0.28867513459481287,0.28867513459481287 0.0 0,1 0.25,0.4330127018922193 A 0.28867513459481287,0.28867513459481287 0.0 0,0 0.5,0.0 " transform="translate(1 0)" /><path stroke-width="0" fill="rgb(235,235,235)" d="M 0.5,0.0 A 0.28867513459481287,0.28867513459481287 0.0 0,1 0.75,0.4330127018922193 A 0.28867513459481287,0.28867513459481287 0.0 0,0 1.0,0.8660254037844386 A 0.28867513459481287,0.28867513459481287 0.0 0,1 0.5,0.8660254037844386 A 0.28867513459481287,0.28867513459481287 0.0 0,0 0.0,0.8660254037844386 A 0.28867513459481287,0.28867513459481287 0.0 0,1 0.25,0.4330127018922193 A 0.28867513459481287,0.28867513459481287 0.0 0,0 0.5,0.0 " transform="translate(-0.5 0.8660254037844386)" /><path stroke-width="0" fill="rgb(235,235,235)" d="M 0.5,0.0 A 0.28867513459481287,0.28867513459481287 0.0 0,1 0.75,0.4330127018922193 A 0.28867513459481287,0.28867513459481287 0.0 0,0 1.0,0.8660254037844386 A 0.28867513459481287,0.28867513459481287 0.0 0,1 0.5,0.8660254037844386 A 0.28867513459481287,0.28867513459481287 0.0 0,0 0.0,0.8660254037844386 A 0.28867513459481287,0.28867513459481287 0.0 0,1 0.25,0.4330127018922193 A 0.28867513459481287,0.28867513459481287 0.0 0,0 0.5,0.0 " transform="translate(0.5 0.8660254037844386)" /><path stroke-width="0" fill="rgb(235,235,235)" d="M 0.5,0.0 A 0.28867513459481287,0.28867513459481287 0.0 0,1 0.75,0.4330127018922193 A 0.28867513459481287,0.28867513459481287 0.0 0,0 1.0,0.8660254037844386 A 0.28867513459481287,0.28867513459481287 0.0 0,1 0.5,0.8660254037844386 A 0.28867513459481287,0.28867513459481287 0.0 0,0 0.0,0.8660254037844386 A 0.28867513459481287,0.28867513459481287 0.0 0,1 0.25,0.4330127018922193 A 0.28867513459481287,0.28867513459481287 0.0 0,0 0.5,0.0 " transform="translate(-0.5 -0.8660254037844386)" /><path stroke-width="0" fill="transparent" d="M 1.0,0.8660254037844386 A 0.28867513459481287,0.28867513459481287 0.0 0,1 0.75,1.299038105676658 A 0.28867513459481287,0.28867513459481287 0.0 0,0 0.5,1.7320508075688772 A 0.28867513459481287,0.28867513459481287 0.0 0,1 0.25,1.299038105676658 A 0.28867513459481287,0.28867513459481287 0.0 0,0 0.0,0.8660254037844386 A 0.28867513459481287,0.28867513459481287 0.0 0,1 0.5,0.8660254037844386 A 0.28867513459481287,0.28867513459481287 0.0 0,0 1.0,0.8660254037844386 Z" /><path stroke-width="0" fill="transparent" d="M 1.0,0.8660254037844386 A 0.28867513459481287,0.28867513459481287 0.0 0,1 0.75,1.299038105676658 A 0.28867513459481287,0.28867513459481287 0.0 0,0 0.5,1.7320508075688772 A 0.28867513459481287,0.28867513459481287 0.0 0,1 0.25,1.299038105676658 A 0.28867513459481287,0.28867513459481287 0.0 0,0 0.0,0.8660254037844386 A 0.28867513459481287,0.28867513459481287 0.0 0,1 0.5,0.8660254037844386 A 0.28867513459481287,0.28867513459481287 0.0 0,0 1.0,0.8660254037844386 Z" transform="translate(-1 0)" /><path stroke-width="0" fill="transparent" d="M 1.0,0.8660254037844386 A 0.28867513459481287,0.28867513459481287 0.0 0,1 0.75,1.299038105676658 A 0.28867513459481287,0.28867513459481287 0.0 0,0 0.5,1.7320508075688772 A 0.28867513459481287,0.28867513459481287 0.0 0,1 0.25,1.299038105676658 A 0.28867513459481287,0.28867513459481287 0.0 0,0 0.0,0.8660254037844386 A 0.28867513459481287,0.28867513459481287 0.0 0,1 0.5,0.8660254037844386 A 0.28867513459481287,0.28867513459481287 0.0 0,0 1.0,0.8660254037844386 Z" transform="translate(-0.5 -0.8660254037844386)" /><path stroke-width="0" fill="transparent" d="M 1.0,0.8660254037844386 A 0.28867513459481287,0.28867513459481287 0.0 0,1 0.75,1.299038105676658 A 0.28867513459481287,0.28867513459481287 0.0 0,0 0.5,1.7320508075688772 A 0.28867513459481287,0.28867513459481287 0.0 0,1 0.25,1.299038105676658 A 0.28867513459481287,0.28867513459481287 0.0 0,0 0.0,0.8660254037844386 A 0.28867513459481287,0.28867513459481287 0.0 0,1 0.5,0.8660254037844386 A 0.28867513459481287,0.28867513459481287 0.0 0,0 1.0,0.8660254037844386 Z" transform="translate(0.5 -0.8660254037844386)" /><path stroke-width="0" fill="transparent" d="M 1.0,0.8660254037844386 A 0.28867513459481287,0.28867513459481287 0.0 0,1 0.75,1.299038105676658 A 0.28867513459481287,0.28867513459481287 0.0 0,0 0.5,1.7320508075688772 A 0.28867513459481287,0.28867513459481287 0.0 0,1 0.25,1.299038105676658 A 0.28867513459481287,0.28867513459481287 0.0 0,0 0.0,0.8660254037844386 A 0.28867513459481287,0.28867513459481287 0.0 0,1 0.5,0.8660254037844386 A 0.28867513459481287,0.28867513459481287 0.0 0,0 1.0,0.8660254037844386 Z" transform="translate(0.5 0.8660254037844386)" /></svg>