<?xml version="1.0" encoding="UTF-8"?>
<!DOCTYPE svg PUBLIC "-//W3C//DTD SVG 1.1//EN"
    "http://www.w3.org/Graphics/SVG/1.1/DTD/svg11.dtd">
<svg xmlns="http://www.w3.org/2000/svg" xmlns:xlink="http://www.w3.org/1999/xlink" viewBox="0 0 1 1.7320508" preserveAspectRatio="xMinYMin meet" fill="black"><path stroke-width="0" fill="white" d="M 0.5,0.0 A 0.28867513,0.28867513 0.0 0,1 0.75,0.4330127 A 0.28867513,0.28867513 0.0 0,0 1.0,0.8660254 A 0.28867513,0.28867513 0.0 0,1 0.5,0.8660254 A 0.28867513,0.28867513 0.0 0,0 0.0,0.8660254 A 0.28867513,0.28867513 0.0 0,1 0.25,0.4330127 A 0.28867513,0.28867513 0.0 0,0 0.5,0.0 " /><path stroke-width="0" fill="white" d="M 0.5,0.0 A 0.28867513,0.28867513 0.0 0,1 0.75,0.4330127 A 0.28867513,0.28867513 0.0 0,0 1.0,0.8660254 A 0.28867513,0.28867513 0.0 0,1 0.5,0.8660254 A 0.28867513,0.28867513 0.0 0,0 0.0,0.8660254 A 0.28867513,0.28867513 0.0 0,1 0.25,0.4330127 A 0.28867513,0.28867513 0.0 0,0 0.5,0.0 " transform="translate(1 0)" /><path stroke-width="0" fill="white" d="M 0.5,0.0 A 0.28867513,0.28867513 0.0 0,1 0.75,0.4330127 A 0.28867513,0.28867513 0.0 0,0 1.0,0.8660254 A 0.28867513,0.28867513 0.0 0,1 0.5,0.8660254 A 0.28867513,0.28867513 0.0 0,0 0.0,0.8660254 A 0.28867513,0.28867513 0.0 0,1 0.25,0.4330127 A 0.28867513,0.28867513 0.0 0,0 0.5,0.0 " transform="translate(-0.5 0.8660254)" /><path stroke-width="0" fill="white" d="M 0.5,0.0 A 0.28867513,0.28867513 0.0 0,1 0.75,0.4330127 A 0.28867513,0.28867513 0.0 0,0 1.0,0.8660254 A 0.28867513,0.28867513 0.0 0,1 0.5,0.8660254 A 0.28867513,0.28867513 0.0 0,0 0.0,0.8660254 A 0.28867513,0.28867513 0.0 0,1 0.25,0.4330127 A 0.28867513,0.28867513 0.0 0,0 0.5,0.0 " transform="translate(0.5 0.8660254)" /><path stroke-width="0" fill="white" d="M 0.5,0.0 A 0.28867513,0.28867513 0.0 0,1 0.75,0.4330127 A 0.28867513,0.28867513 0.0 0,0 1.0,0.8660254 A 0.28867513,0.28867513 0.0 0,1 0.5,0.8660254 A 0.28867513,0.28867513 0.0 0,0 0.0,0.8660254 A 0.28867513,0.28867513 0.0 0,1 0.25,0.4330127 A 0.28867513,0.28867513 0.0 0,0 0.5,0.0 " transform="translate(-0.5 -0.8660254)" /><path stroke-width="0" fill="blue" d="M 1.0,0.8660254 A 0.28867513,0.28867513 0.0 0,1 0.75,1.299038 A 0.28867513,0.28867513 0.0 0,0 0.5,1.7320508 A 0.28867513,0.28867513 0.0 0,1 0.25,1.299038 A 0.28867513,0.28867513 0.0 0,0 0.0,0.8660254 A 0.28867513,0.28867513 0.0 0,1 0.5,0.8660254 A 0.28867513,0.28867513 0.0 0,0 1.0,0.8660254 Z" /><path stroke-width="0" fill="blue" d="M 1.0,0.8660254 A 0.28867513,0.28867513 0.0 0,1 0.75,1.299038 A 0.28867513,0.28867513 0.0 0,0 0.5,1.7320508 A 0.28867513,0.28867513 0.0 0,1 0.25,1.299038 A 0.28867513,0.28867513 0.0 0,0 0.0,0.8660254 A 0.28867513,0.28867513 0.0 0,1 0.5,0.8660254 A 0.28867513,0.28867513 0.0 0,0 1.0,0.8660254 Z" transform="translate(-1 0)" /><path stroke-width="0" fill="blue" d="M 1.0,0.8660254 A 0.28867513,0.28867513 0.0 0,1 0.75,1.299038 A 0.28867513,0.28867513 0.0 0,0 0.5,1.7320508 A 0.28867513,0.28867513 0.0 0,1 0.25,1.299038 A 0.28867513,0.28867513 0.0 0,0 0.0,0.8660254 A 0.28867513,0.28867513 0.0 0,1 0.5,0.8660254 A 0.28867513,0.28867513 0.0 0,0 1.0,0.8660254 Z" transform="translate(-0.5 -0.8660254)" /><path stroke-width="0" fill="blue" d="M 1.0,0.8660254 A 0.28867513,0.28867513 0.0 0,1 0.75,1.299038 A 0.28867513,0.28867513 0.0 0,0 0.5,1.7320508 A 0.28867513,0.28867513 0.0 0,1 0.25,1.299038 A 0.28867513,0.28867513 0.0 0,0 0.0,0.8660254 A 0.28867513,0.28867513 0.0 0,1 0.5,0.8660254 A 0.28867513,0.28867513 0.0 0,0 1.0,0.8660254 Z" transform="translate(0.5 -0.8660254)" /><path stroke-width="0" fill="blue" d="M 1.0,0.8660254 A 0.28867513,0.28867513 0.0 0,1 0.75,1.299038 A 0.28867513,0.28867513 0.0 0,0 0.5,1.7320508 A 0.28867513,0.28867513 0.0 0,1 0.25,1.299038 A 0.28867513,0.28867513 0.0 0,0 0.0,0.8660254 A 0.28867513,0.28867513 0.0 0,1 0.5,0.8660254 A 0.28867513,0.28867513 0.0 0,0 1.0,0.8660254 Z" transform="translate(0.5 0.8660254)" /><path stroke-width="0" fill="white" d="M 0.73,1.1547005 L 0.615,0.95551467 L 0.385,0.95551467 L 0.26999998,1.1547005 L 0.385,1.3538864 L 0.615,1.3538864 Z" /><path stroke-width="0" fill="white" d="M 0.73,1.1547005 L 0.615,0.95551467 L 0.385,0.95551467 L 0.26999998,1.1547005 L 0.385,1.3538864 L 0.615,1.3538864 Z" transform="translate(-0.5 -0.8660254)" /><path stroke-width="0" fill="white" d="M 0.73,1.1547005 L 0.615,0.95551467 L 0.385,0.95551467 L 0.26999998,1.1547005 L 0.385,1.3538864 L 0.615,1.3538864 Z" transform="translate(0.5 -0.8660254)" /><path d="M 0.68,0.57735026 L 0.637888,0.69305205 L 0.41,0.7332348 L 0.33085534,0.5157866 L 0.53125674,0.40008485 L 0.68,0.57735026 L 0.5312567,0.75461566 L 0.3308553,0.63891387 L 0.41000003,0.42146567 L 0.637888,0.46164852 L 0.637888,0.69305205 " stroke-width="0.0" fill="orange" /><path d="M 0.68,0.57735026 L 0.637888,0.69305205 L 0.41,0.7332348 L 0.33085534,0.5157866 L 0.53125674,0.40008485 L 0.68,0.57735026 L 0.5312567,0.75461566 L 0.3308553,0.63891387 L 0.41000003,0.42146567 L 0.637888,0.46164852 L 0.637888,0.69305205 " stroke-width="0.0" fill="green" transform="translate(-0.5 0.8660254)" /><path d="M 0.68,0.57735026 L 0.637888,0.69305205 L 0.41,0.7332348 L 0.33085534,0.5157866 L 0.53125674,0.40008485 L 0.68,0.57735026 L 0.5312567,0.75461566 L 0.3308553,0.63891387 L 0.41000003,0.42146567 L 0.637888,0.46164852 L 0.637888,0.69305205 " stroke-width="0.0" fill="green" transform="translate(0.5 0.8660254)" /></svg>