<?xml version="1.0" encoding="UTF-8"?>
<!DOCTYPE svg PUBLIC "-//W3C//DTD SVG 1.1//EN"
    "http://www.w3.org/Graphics/SVG/1.1/DTD/svg11.dtd">
<svg xmlns="http://www.w3.org/2000/svg" xmlns:xlink="http://www.w3.org/1999/xlink" viewBox="0 0 1 1" preserveAspectRatio="xMinYMin meet"><g fill="none" stroke-width="8.0e-2" stroke-linecap="round"><path stroke="rgb(0, 166, 166)" d="M 0.25,0.0 L 0.17,7.000001e-2 L 0.17,0.32999998 " /><path stroke="black" d="M 0.0,0.25 L 7.000001e-2,0.17 L 0.32999998,0.17 L 0.32999998,0.43 L 0.25,0.5 " /><path stroke="rgb(0, 166, 166)" d="M 0.17,0.32999998 L 0.43,0.32999998 L 0.5,0.25 " /><rect x="0.13" y="0.29" width="8.0e-2" height="8.0e-2" fill="rgb(0, 166, 166)" /></g><g fill="none" stroke-width="8.0e-2" stroke-linecap="round" transform="rotate(180.0,0.5,0.5)"><path stroke="rgb(0, 166, 166)" d="M 0.25,0.0 L 0.17,7.000001e-2 L 0.17,0.32999998 " /><path stroke="black" d="M 0.0,0.25 L 7.000001e-2,0.17 L 0.32999998,0.17 L 0.32999998,0.43 L 0.25,0.5 " /><path stroke="rgb(0, 166, 166)" d="M 0.17,0.32999998 L 0.43,0.32999998 L 0.5,0.25 " /><rect x="0.13" y="0.29" width="8.0e-2" height="8.0e-2" fill="rgb(0, 166, 166)" /></g><g fill="none" stroke-width="8.0e-2" stroke-linecap="round" transform="rotate(90.0,0.25,0.25)translate(0.5 0.0)"><path stroke="rgb(0, 166, 166)" d="M 0.25,0.0 L 0.17,7.000001e-2 L 0.17,0.32999998 " /><path stroke="black" d="M 0.0,0.25 L 7.000001e-2,0.17 L 0.32999998,0.17 L 0.32999998,0.43 L 0.25,0.5 " /><path stroke="rgb(0, 166, 166)" d="M 0.17,0.32999998 L 0.43,0.32999998 L 0.5,0.25 " /><rect x="0.13" y="0.29" width="8.0e-2" height="8.0e-2" fill="rgb(0, 166, 166)" /></g><g fill="none" stroke-width="8.0e-2" stroke-linecap="round" transform="rotate(270.0,0.25,0.25)translate(0.0 0.5)"><path stroke="rgb(0, 166, 166)" d="M 0.25,0.0 L 0.17,7.000001e-2 L 0.17,0.32999998 " /><path stroke="black" d="M 0.0,0.25 L 7.000001e-2,0.17 L 0.32999998,0.17 L 0.32999998,0.43 L 0.25,0.5 " /><path stroke="rgb(0, 166, 166)" d="M 0.17,0.32999998 L 0.43,0.32999998 L 0.5,0.25 " /><rect x="0.13" y="0.29" width="8.0e-2" height="8.0e-2" fill="rgb(0, 166, 166)" /></g></svg>