<?xml version="1.0" encoding="UTF-8"?>
<!DOCTYPE svg PUBLIC "-//W3C//DTD SVG 1.1//EN"
    "http://www.w3.org/Graphics/SVG/1.1/DTD/svg11.dtd">
<svg xmlns="http://www.w3.org/2000/svg" xmlns:xlink="http://www.w3.org/1999/xlink" viewBox="0 0 1 1.7320508" preserveAspectRatio="xMinYMin meet" fill="black"><path stroke-width="0" fill="white" d="M 0.5,0.0 A 0.28867513,0.28867513 0.0 0,1 0.75,0.4330127 A 0.28867513,0.28867513 0.0 0,0 1.0,0.8660254 A 0.28867513,0.28867513 0.0 0,1 0.5,0.8660254 A 0.28867513,0.28867513 0.0 0,0 0.0,0.8660254 A 0.28867513,0.28867513 0.0 0,1 0.25,0.4330127 A 0.28867513,0.28867513 0.0 0,0 0.5,0.0 " /><path stroke-width="0" fill="white" d="M 0.5,0.0 A 0.28867513,0.28867513 0.0 0,1 0.75,0.4330127 A 0.28867513,0.28867513 0.0 0,0 1.0,0.8660254 A 0.28867513,0.28867513 0.0 0,1 0.5,0.8660254 A 0.28867513,0.28867513 0.0 0,0 0.0,0.8660254 A 0.28867513,0.28867513 0.0 0,1 0.25,0.4330127 A 0.28867513,0.28867513 0.0 0,0 0.5,0.0 " transform="translate(1 0)" /><path stroke-width="0" fill="white" d="M 0.5,0.0 A 0.28867513,0.28867513 0.0 0,1 0.75,0.4330127 A 0.28867513,0.28867513 0.0 0,0 1.0,0.8660254 A 0.28867513,0.28867513 0.0 0,1 0.5,0.8660254 A 0.28867513,0.28867513 0.0 0,0 0.0,0.8660254 A 0.28867513,0.28867513 0.0 0,1 0.25,0.4330127 A 0.28867513,0.28867513 0.0 0,0 0.5,0.0 " transform="translate(-0.5 0.8660254)" /><path stroke-width="0" fill="white" d="M 0.5,0.0 A 0.28867513,0.28867513 0.0 0,1 0.75,0.4330127 A 0.28867513,0.28867513 0.0 0,0 1.0,0.8660254 A 0.28867513,0.28867513 0.0 0,1 0.5,0.8660254 A 0.28867513,0.28867513 0.0 0,0 0.0,0.8660254 A 0.28867513,0.28867513 0.0 0,1 0.25,0.4330127 A 0.28867513,0.28867513 0.0 0,0 0.5,0.0 " transform="translate(0.5 0.8660254)" /><path stroke-width="0" fill="white" d="M 0.5,0.0 A 0.28867513,0.28867513 0.0 0,1 0.75,0.4330127 A 0.28867513,0.28867513 0.0 0,0 1.0,0.8660254 A 0.28867513,0.28867513 0.0 0,1 0.5,0.8660254 A 0.28867513,0.28867513 0.0 0,0 0.0,0.8660254 A 0.28867513,0.28867513 0.0 0,1 0.25,0.4330127 A 0.28867513,0.28867513 0.0 0,0 0.5,0.0 " transform="translate(-0.5 -0.8660254)" /><path stroke-width="0" fill="transparent" d="M 1.0,0.8660254 A 0.28867513,0.28867513 0.0 0,1 0.75,1.299038 A 0.28867513,0.28867513 0.0 0,0 0.5,1.7320508 A 0.28867513,0.28867513 0.0 0,1 0.25,1.299038 A 0.28867513,0.28867513 0.0 0,0 0.0,0.8660254 A 0.28867513,0.28867513 0.0 0,1 0.5,0.8660254 A 0.28867513,0.28867513 0.0 0,0 1.0,0.8660254 Z" /><path stroke-width="0" fill="transparent" d="M 1.0,0.8660254 A 0.28867513,0.28867513 0.0 0,1 0.75,1.299038 A 0.28867513,0.28867513 0.0 0,0 0.5,1.7320508 A 0.28867513,0.28867513 0.0 0,1 0.25,1.299038 A 0.28867513,0.28867513 0.0 0,0 0.0,0.8660254 A 0.28867513,0.28867513 0.0 0,1 0.5,0.8660254 A 0.28867513,0.28867513 0.0 0,0 1.0,0.8660254 Z" transform="translate(-1 0)" /><path stroke-width="0" fill="transparent" d="M 1.0,0.8660254 A 0.28867513,0.28867513 0.0 0,1 0.75,1.299038 A 0.28867513,0.28867513 0.0 0,0 0.5,1.7320508 A 0.28867513,0.28867513 0.0 0,1 0.25,1.299038 A 0.28867513,0.28867513 0.0 0,0 0.0,0.8660254 A 0.28867513,0.28867513 0.0 0,1 0.5,0.8660254 A 0.28867513,0.28867513 0.0 0,0 1.0,0.8660254 Z" transform="translate(-0.5 -0.8660254)" /><path stroke-width="0" fill="transparent" d="M 1.0,0.8660254 A 0.28867513,0.28867513 0.0 0,1 0.75,1.299038 A 0.28867513,0.28867513 0.0 0,0 0.5,1.7320508 A 0.28867513,0.28867513 0.0 0,1 0.25,1.299038 A 0.28867513,0.28867513 0.0 0,0 0.0,0.8660254 A 0.28867513,0.28867513 0.0 0,1 0.5,0.8660254 A 0.28867513,0.28867513 0.0 0,0 1.0,0.8660254 Z" transform="translate(0.5 -0.8660254)" /><path stroke-width="0" fill="transparent" d="M 1.0,0.8660254 A 0.28867513,0.28867513 0.0 0,1 0.75,1.299038 A 0.28867513,0.28867513 0.0 0,0 0.5,1.7320508 A 0.28867513,0.28867513 0.0 0,1 0.25,1.299038 A 0.28867513,0.28867513 0.0 0,0 0.0,0.8660254 A 0.28867513,0.28867513 0.0 0,1 0.5,0.8660254 A 0.28867513,0.28867513 0.0 0,0 1.0,0.8660254 Z" transform="translate(0.5 0.8660254)" /><path stroke-width="0" fill="white" d="M 0.74,1.1547005 L 0.62,0.9468544 L 0.38,0.9468544 L 0.26,1.1547005 L 0.38,1.3625466 L 0.62,1.3625466 Z" /><path stroke-width="0" fill="white" d="M 0.74,1.1547005 L 0.62,0.9468544 L 0.38,0.9468544 L 0.26,1.1547005 L 0.38,1.3625466 L 0.62,1.3625466 Z" transform="translate(-0.5 -0.8660254)" /><path stroke-width="0" fill="white" d="M 0.74,1.1547005 L 0.62,0.9468544 L 0.38,0.9468544 L 0.26,1.1547005 L 0.38,1.3625466 L 0.62,1.3625466 Z" transform="translate(0.5 -0.8660254)" /><path d="M 0.67,0.57735026 L 0.67,0.57735026 L 0.415,0.72457457 L 0.41500002,0.43012595 L 0.67,0.57735026 M 0.585,0.72457457 L 0.585,0.72457457 L 0.32999998,0.57735026 L 0.585,0.43012595 L 0.585,0.72457457 " stroke-width="0.0" fill="orange" /><path d="M 0.67,0.57735026 L 0.67,0.57735026 L 0.415,0.72457457 L 0.41500002,0.43012595 L 0.67,0.57735026 M 0.585,0.72457457 L 0.585,0.72457457 L 0.32999998,0.57735026 L 0.585,0.43012595 L 0.585,0.72457457 " stroke-width="0.0" fill="green" transform="translate(-0.5 0.8660254)" /><path d="M 0.67,0.57735026 L 0.67,0.57735026 L 0.415,0.72457457 L 0.41500002,0.43012595 L 0.67,0.57735026 M 0.585,0.72457457 L 0.585,0.72457457 L 0.32999998,0.57735026 L 0.585,0.43012595 L 0.585,0.72457457 " stroke-width="0.0" fill="green" transform="translate(0.5 0.8660254)" /></svg>