<?xml version="1.0" encoding="UTF-8"?>
<!DOCTYPE svg PUBLIC "-//W3C//DTD SVG 1.1//EN"
    "http://www.w3.org/Graphics/SVG/1.1/DTD/svg11.dtd">
<svg xmlns="http://www.w3.org/2000/svg" xmlns:xlink="http://www.w3.org/1999/xlink" viewBox="0 0 1 1" preserveAspectRatio="xMinYMin meet"><defs><path id="clipCircles-topRightBottomLeft" d="M 0.5,0.25 A 0.25,0.25 0.0 1,1 0.75,0.5 A 0.25,0.25 0.0 0,0 0.5,0.75 A 0.25,0.25 0.0 1,1 0.25,0.5 A 0.25,0.25 0.0 0,0 0.5,0.25 " /><path id="clipCircles-topLeftBottomRight" d="M 0.5,0.25 A 0.25,0.25 0.0 1,1 0.75,0.5 A 0.25,0.25 0.0 0,0 0.5,0.75 A 0.25,0.25 0.0 1,1 0.25,0.5 A 0.25,0.25 0.0 0,0 0.5,0.25 " transform="rotate(90.0,0.5,0.5)" /><path id="clipCircles-vertical" d="M 0.35355339059327373,0.35355339059327373 A 0.20710678118654752,0.20710678118654752 0.0 1,1 0.6464466094067263,0.35355339059327373 A 0.20710678118654752,0.20710678118654752 0.0 0,0 0.6464466094067263,0.6464466094067263 A 0.20710678118654752,0.20710678118654752 0.0 1,1 0.35355339059327373,0.6464466094067263 A 0.20710678118654752,0.20710678118654752 0.0 0,0 0.35355339059327373,0.35355339059327373 " /><path id="clipCircles-horizontal" d="M 0.35355339059327373,0.35355339059327373 A 0.20710678118654752,0.20710678118654752 0.0 1,1 0.6464466094067263,0.35355339059327373 A 0.20710678118654752,0.20710678118654752 0.0 0,0 0.6464466094067263,0.6464466094067263 A 0.20710678118654752,0.20710678118654752 0.0 1,1 0.35355339059327373,0.6464466094067263 A 0.20710678118654752,0.20710678118654752 0.0 0,0 0.35355339059327373,0.35355339059327373 " transform="rotate(90.0,0.5,0.5)" /></defs><use xlink:href="#clipCircles-horizontal" fill="crimson" /></svg>